<?xml version="1.0" encoding="UTF-8" standalone="no"?>
<svg
   width="1104px"
   height="188px"
   version="1.1"
   id="svg2"
   sodipodi:docname="oe_ru.svg"
   inkscape:version="1.3 (0e150ed, 2023-07-21)"
   xmlns:inkscape="http://www.inkscape.org/namespaces/inkscape"
   xmlns:sodipodi="http://sodipodi.sourceforge.net/DTD/sodipodi-0.dtd"
   xmlns="http://www.w3.org/2000/svg"
   xmlns:svg="http://www.w3.org/2000/svg">
  <defs
     id="defs2" />
  <sodipodi:namedview
     id="namedview2"
     pagecolor="#ffffff"
     bordercolor="#000000"
     borderopacity="0.25"
     inkscape:showpageshadow="2"
     inkscape:pageopacity="0.0"
     inkscape:pagecheckerboard="0"
     inkscape:deskcolor="#d1d1d1"
     inkscape:zoom="0.56197367"
     inkscape:cx="611.23861"
     inkscape:cy="172.60595"
     inkscape:window-width="1440"
     inkscape:window-height="847"
     inkscape:window-x="0"
     inkscape:window-y="25"
     inkscape:window-maximized="1"
     inkscape:current-layer="svg2" />
  <path
     fill-rule="evenodd"
     fill="#8dba6b"
     d="m 1074.429,148.812 v -13.4 c -5.8,9.8 -17,15 -32.8,15 -25.199,0 -40.199,-14 -40.199,-32.6 0,-18.999 13.4,-32.199 46.199,-32.199 h 24.8 c 0,-13.4 -8,-21.2 -24.8,-21.2 -11.4,0 -23.199,3.8 -30.999,10 l -11.2,-21.8 c 11.8,-8.399 29.2,-12.999 46.399,-12.999 32.8,0 51.799,15.199 51.799,47.799 v 61.399 z m -2,-44.999 h -21.139 c -14.861,0 -19.46,5.4 -19.46,12.599 0,7.8 6.599,13 17.599,13 10.4,0 19.4,-4.8 23,-14.599 z m -63.749,44.999 h -37.411 l -28.8,-40.682 h -16.2 v 40.682 H 895.7 V 41.214 h 30.569 V 83.13 h 17.421 l 28.579,-41.916 h 33.199 l -37.599,51.599 z m -161.991,-63.999 -52.2,63.999 H 765.69 V 41.214 h 30.999 v 63.999 L 849.89,41.214 h 27.798 v 107.598 h -30.999 z m -129.58,-18 h -44.8 v 81.999 H 641.31 V 41.214 h 106.998 v 107.598 h -31.199 z m -249.56,83.599 c -34.199,0 -59.199,-23 -59.199,-55.282 0,-32.517 25,-55.516 59.199,-55.516 34.2,0 58.999,22.999 58.999,55.516 0,32.282 -24.799,55.282 -58.999,55.282 z m 0,-85.199 c -15.6,0 -27.599,11.2 -27.599,29.917 0,18.483 11.999,29.682 27.599,29.682 15.6,0 27.4,-11.199 27.4,-29.682 0,-18.717 -11.8,-29.917 -27.4,-29.917 z m -126.28,85.599 v 36.799 h -28.6 v -36.799 c -41.199,-2.692 -64.399,-22.2 -64.399,-56.199 0,-33.4 23.43,-51.999 64.399,-54.799 v -39.4 h 28.6 v 39.4 c 40.999,2.8 64.399,21.599 64.399,54.799 0,33.599 -23.4,53.199 -64.399,56.199 z m -28.6,-86.682 c -24,2.283 -34.199,12.483 -34.199,30.483 0,19 10.199,29.507 34.199,31.999 z m 28.6,0 v 62.482 c 23.999,-2.492 34.399,-12.999 34.399,-31.999 0,-18.2 -10.4,-28.2 -34.399,-30.483 z m -149.44,86.282 c -13.4,0 -24.4,-4.2 -32.4,-13 v 50.199 H 128.23 V 41.214 h 30.06 v 12.399 c 7.539,-9.399 19.139,-13.999 33.539,-13.999 30.451,0 53.599,21.599 53.599,55.516 0,33.682 -23.148,55.282 -53.599,55.282 z m -5.4,-85.199 c -15.6,0 -27.139,11.2 -27.139,29.917 0,18.483 11.539,29.682 27.139,29.682 15.861,0 27.4,-11.199 27.4,-29.682 0,-18.717 -11.539,-29.917 -27.4,-29.917 z m -126.64,85.199 c -34.199,0 -59.199,-23 -59.199,-55.282 0,-32.517 25,-55.516 59.199,-55.516 34.2,0 58.999,22.999 58.999,55.516 0,32.282 -24.799,55.282 -58.999,55.282 z m 0,-85.199 c -15.6,0 -27.599,11.2 -27.599,29.917 0,18.483 11.999,29.682 27.599,29.682 15.6,0 27.4,-11.199 27.4,-29.682 0,-18.717 -11.8,-29.917 -27.4,-29.917 z"
     id="path1"
     sodipodi:nodetypes="ccssscsccsscccsssccccccccccccccccccccccccccccccccccccssssssssssccccsccccsccsccccscsccccccssssssssssssssssss" />
  <path
     d="m 573.72199,151.03551 c -20.599,0 -37.599,-7 -48.599,-19.692 l 17.8,-16.907 c 8,8.199 17.8,12.599 29.599,12.599 15.6,0 27.4,-8.4 31.4,-21.599 h -45.199 V 84.036507 h 44.799 c -4.2,-12.683 -15.8,-20.683 -31,-20.683 -11.799,0 -21.599,4.483 -29.599,12.683 l -17.8,-16.6 c 11,-12.999 28,-19.999 48.599,-19.999 35,0 60.399,23.199 60.399,55.916 0,32.482003 -25.399,55.682003 -60.399,55.682003 z"
     style="fill:#e288b3;fill-rule:evenodd;fill-opacity:1"
     id="path1-0" />
  <path
     fill-rule="evenodd"
     fill="#e288b3"
     d="m 620.989,0.614 h -33.6 l -27,28.8 h 24.4 z"
     id="path2" />
</svg>
